<svg width="40" height="40" viewBox="0 0 40 40" fill="none" xmlns="http://www.w3.org/2000/svg">
<path d="M10.7912 11.5953L10.7911 11.5953C10.295 12.337 10.4601 13.3391 11.1735 13.8801L11.1735 13.8801L13.8843 15.9356C13.8843 15.9356 13.8843 15.9356 13.8844 15.9356C14.6158 16.4902 15.6588 16.3591 16.2285 15.6365C16.9322 14.7439 17.4587 14.1297 18.0362 13.7234C18.5779 13.3423 19.1944 13.1255 20.1163 13.1255C20.7713 13.1255 21.5215 13.3414 22.0912 13.7115C22.6667 14.0854 22.9364 14.5264 22.9364 14.9504C22.9364 15.2803 22.8196 15.5353 22.4963 15.8353C22.1353 16.1703 21.5831 16.4991 20.7779 16.9505C20.718 16.9842 20.6568 17.0183 20.5945 17.0531C18.813 18.0472 16.125 19.5471 16.125 23.125V23.4375C16.125 24.3694 16.8806 25.125 17.8125 25.125H22.1875C23.1194 25.125 23.875 24.3694 23.875 23.4375V23.3334C23.875 23.1918 23.9654 22.9664 24.5629 22.559C24.8401 22.3701 25.17 22.1785 25.5562 21.9556L25.5896 21.9364C25.9588 21.7233 26.3697 21.4862 26.7824 21.2186C27.6337 20.6667 28.5384 19.9575 29.2272 18.9517C29.9245 17.9336 30.3739 16.6511 30.3739 15C30.3739 12.4603 29.056 10.2709 27.201 8.73818C25.3492 7.2081 22.9064 6.28125 20.5199 6.28125C18.2808 6.28125 16.4051 6.75435 14.7973 7.67574C13.1936 8.59484 11.9029 9.93348 10.7912 11.5953ZM38.625 20C38.625 30.2886 30.2856 38.625 20 38.625C9.71437 38.625 1.375 30.2886 1.375 20C1.375 9.71749 9.71453 1.375 20 1.375C30.2855 1.375 38.625 9.71749 38.625 20ZM20 25.6562C17.6041 25.6562 15.6562 27.6041 15.6562 30C15.6562 32.3958 17.6041 34.3438 20 34.3438C22.3959 34.3438 24.3438 32.3958 24.3438 30C24.3438 27.6041 22.3959 25.6562 20 25.6562Z" stroke="#306889" stroke-width="1.5"/>
</svg>
